<svg width="88" height="88" viewBox="0 0 88 88" fill="none" xmlns="http://www.w3.org/2000/svg"><path d="M44 88c24.3 0 44-19.7 44-44S68.3 0 44 0 0 19.7 0 44s19.7 44 44 44z" fill="url(#paint0_linear)"/><path d="M66.453 46.45H21.548a2.724 2.724 0 00-2.716 2.715 2.724 2.724 0 002.716 2.717H32.83l7.645 20.189a2.725 2.725 0 002.679 1.749 2.725 2.725 0 002.679-1.749l7.645-20.19h12.976a2.724 2.724 0 002.716-2.716 2.724 2.724 0 00-2.716-2.716zm-23.3 17.356L38.637 51.88h9.032l-4.516 11.925zM21.548 41.38h44.906a2.724 2.724 0 002.716-2.717 2.724 2.724 0 00-2.716-2.716h-6.942l5.598-14.785a2.724 2.724 0 00-1.578-3.502 2.724 2.724 0 00-3.502 1.579l-6.328 16.708H32.603l-6.327-16.708a2.725 2.725 0 00-3.502-1.579 2.724 2.724 0 00-1.578 3.502l5.599 14.785h-5.247a2.724 2.724 0 00-2.716 2.716 2.724 2.724 0 002.716 2.716z" fill="#fff"/><defs><linearGradient id="paint0_linear" x1="9.258" y1="71.67" x2="77.778" y2="17.097" gradientUnits="userSpaceOnUse"><stop stop-color="#F8B342"/><stop offset="1" stop-color="#F2C35E"/></linearGradient></defs></svg>